<svg width="28" height="29" viewBox="0 0 28 29" fill="none" xmlns="http://www.w3.org/2000/svg">
<path d="M22.0706 10.1524C22.0706 13.4214 20.1336 16.2399 17.3455 17.5187C18.5228 16.5489 19.2726 15.0777 19.2726 13.4313C19.2726 10.5391 16.9581 8.18709 14.0784 8.12845C14.0402 8.12582 14.0053 8.12582 13.9671 8.12582C13.9288 8.12582 13.8939 8.12582 13.8557 8.12845C12.7871 8.18643 11.9412 9.07057 11.9412 10.1517V20.2811C11.9412 23.6365 9.21891 26.3588 5.86353 26.3588V10.1524C5.86353 5.67763 9.49233 2.04883 13.9671 2.04883C18.4418 2.04883 22.0706 5.67763 22.0706 10.1524Z" fill="white" stroke="black"/>
<path d="M15.3994 11.5848C16.1906 10.7937 16.1906 9.51099 15.3994 8.71984C14.6083 7.92869 13.3256 7.92869 12.5344 8.71984C11.7433 9.51099 11.7433 10.7937 12.5344 11.5848C13.3256 12.376 14.6083 12.376 15.3994 11.5848Z"  fill="white" stroke="black"/>
</svg>
